<svg width="442" height="493" viewBox="0 0 442 493" fill="none" xmlns="http://www.w3.org/2000/svg">
<path d="M53.1301 301.84L6.93005 348.04H231H455.07L408.87 301.84L362.67 255.64H231H99.3301L53.1301 301.84Z" fill="#B8D0FF" fill-opacity="0.25"/>
<path d="M0 385V412.72H231H462V385V357.28H231H0V385Z" fill="#B8D0FF" fill-opacity="0.25"/>
<path d="M27.72 518.98V616H55.44H83.16V518.98V421.96H55.44H27.72V518.98Z" fill="#B8D0FF" fill-opacity="0.25"/>
<path d="M101.64 486.64V551.32H129.36H157.08V486.64V421.96H129.36H101.64V486.64Z" fill="#B8D0FF" fill-opacity="0.25"/>
<path d="M304.92 486.64V551.32H332.64H360.36V486.64V421.96H332.64H304.92V486.64Z" fill="#B8D0FF" fill-opacity="0.25"/>
<path d="M378.84 518.98V616H406.56H434.28V518.98V421.96H406.56H378.84V518.98Z" fill="#B8D0FF" fill-opacity="0.25"/>
<path d="M192.654 0.801803C192.22 1.06189 192.308 1.26217 193.331 2.80568C195.495 5.9495 199.578 16.2524 201.998 24.556L202.47 26.2455L200.709 28.2895C196.493 33.1835 193.788 38.3858 191.502 46.1093C188.986 54.5794 187.5 65.7971 187.548 76.0902L187.562 78.9574L190.451 82.2699C194.742 87.1814 199.347 90.9159 202.808 92.276C203.623 92.6163 204.35 92.9283 204.408 92.9567C204.466 92.9851 203.981 94.7937 203.353 96.9757C201.525 103.436 200.504 108.687 199.893 114.568C199.533 118.326 199.745 126.382 200.277 128.501L200.633 129.961L198.472 133.441C192.852 142.356 184.506 158.193 179.622 169.197C168.045 195.372 161.363 219.373 159.122 242.952C158.541 249.091 158.518 262.825 159.095 268.327C160.707 283.889 164.159 295.771 170.722 308.385L172.773 312.39L171.067 313.946C170.142 314.811 167.249 317.089 164.675 319.022C147.894 331.573 130.278 339.254 114.202 340.963C110.024 341.413 101.603 341.194 97.9133 340.581C91.8115 339.52 85.414 337.313 82.0066 335.035C78.1041 332.444 74.6294 328.217 72.926 324.039C70.9289 319.145 70.3893 315.506 70.56 308.538C70.6772 302.574 71.2403 298.815 72.8934 292.242C75.43 282.108 81.026 268.148 86.6105 257.914C88.2225 254.953 88.6242 253.948 88.8777 252.284C89.2424 249.558 88.9438 247.782 87.8932 246.64C87.1345 245.812 86.9019 245.727 85.5085 245.762C81.5605 245.867 74.6442 250.659 69.8812 256.53C60.0957 268.618 52.5851 289.125 49.9866 310.842C49.3721 316.006 49.3433 328.479 49.9143 332.633C51.8349 345.986 56.2031 355.054 63.2534 360.268C65.4093 361.864 69.5993 363.851 72.0699 364.471C74.3953 365.062 83.749 366.165 91.9393 366.844C135.505 370.396 168.168 364.537 193.99 348.504C198.651 345.615 202.123 343.132 208.95 337.796C219.595 329.46 223.127 327.236 227.331 326.184C229.042 325.746 230.058 325.741 237.782 326.02C256.25 326.708 269.625 324.667 280.111 319.601C289.235 315.142 295.47 307.429 296.449 299.368C296.645 297.818 296.673 297.761 298.555 296.491C317.51 283.557 323.51 262.856 315.611 237.547C314.049 232.508 311.612 226.613 309.122 221.865L306.895 217.603L307.336 212.411C308.963 194.168 308.926 173.754 307.265 160.113C306.089 150.686 304.102 141.864 301.869 136.111L300.988 133.879L301.485 128.515C302.093 121.918 302.11 107.037 301.507 102.222C300.662 95.2304 299.593 90.2177 298.003 85.4943C296.914 82.2307 294.277 77.1107 292.759 75.2828C291.503 73.769 291.298 73.2826 289.705 67.8997C282.301 43.0468 272.496 26.1474 260.993 18.5457C258.809 17.0936 255.928 15.7882 254.388 15.5373C253.401 15.3986 253.08 15.1421 252.291 13.9415C250.156 10.7115 244.968 6.40627 240.166 3.84823C237.052 2.19981 233.62 0.896936 232.342 0.90291C229.468 0.916352 227.573 5.4841 227.605 12.2506L227.615 14.3436L223.336 12.0412C214.256 7.20937 205.149 3.12316 199.626 1.51466C196.805 0.667673 193.407 0.310852 192.654 0.801803Z" fill="#E39D5D"/>
<path d="M85.9997 259C82.9997 264.035 77.5 281 71.9997 284C63.9997 285 68.5 269.5 63.9997 267.5C61.8097 266.679 67.5 259 72 254C77.5 248.5 82.4635 245.758 84.4997 246C88.9997 244 91.4997 251.5 85.9997 259Z" fill="#D9D9D9"/>
<path d="M283.5 174.5C283.5 176.985 269.129 161.5 244 161.5C218.871 161.5 205 163.985 205 161.5C205 159.015 218.871 152.5 244 152.5C269.129 152.5 283.5 172.015 283.5 174.5Z" fill="#DC8B51"/>
<path d="M274.5 209.5C274.5 211.955 261.171 201.891 235.242 201.891C209.313 201.891 195 204.346 195 201.891C195 199.436 209.313 193 235.242 193C261.171 193 274.5 207.045 274.5 209.5Z" fill="#DC8B51"/>
</svg>
