<svg width="50" height="50" viewBox="0 0 50 50" fill="none" xmlns="http://www.w3.org/2000/svg">
<path d="M49.0342 5.86094C50.5054 4.3432 50.271 2.08892 48.5004 0.827867C46.7297 -0.433191 44.0997 -0.232315 42.6285 1.28542L25 19.4201L7.37147 1.28542C5.90026 -0.232315 3.2703 -0.433191 1.49963 0.827867C-0.27103 2.08892 -0.505382 4.3432 0.965832 5.86094L19.5708 25L0.965832 44.1391C-0.505382 45.6568 -0.27103 47.9111 1.49963 49.1721C3.2703 50.4332 5.90026 50.2323 7.37147 48.7146L25 30.5799L42.6285 48.7146C44.0997 50.2323 46.7297 50.4332 48.5004 49.1721C50.271 47.9111 50.5054 45.6568 49.0342 44.1391L30.4292 25L49.0342 5.86094Z" fill="#DADADA"/>
</svg>
